<mxfile host="app.diagrams.net" agent="Mozilla/5.0 (Windows NT 10.0; Win64; x64) AppleWebKit/537.36 (KHTML, like Gecko) Chrome/132.0.0.0 Safari/537.36 OPR/117.0.0.0" version="26.2.8">
  <diagram name="Página-1" id="da2rwZR0aL4oZpDjQokH">
    <mxGraphModel dx="833" dy="1622" grid="1" gridSize="10" guides="1" tooltips="1" connect="1" arrows="1" fold="1" page="1" pageScale="1" pageWidth="827" pageHeight="1169" math="0" shadow="0">
      <root>
        <mxCell id="0" />
        <mxCell id="1" parent="0" />
        <mxCell id="0Tl1-S5wfmLRvgDY2HoP-1" value="" style="edgeStyle=orthogonalEdgeStyle;rounded=0;orthogonalLoop=1;jettySize=auto;html=1;" edge="1" parent="1" source="0Tl1-S5wfmLRvgDY2HoP-2" target="0Tl1-S5wfmLRvgDY2HoP-6">
          <mxGeometry relative="1" as="geometry" />
        </mxCell>
        <mxCell id="0Tl1-S5wfmLRvgDY2HoP-2" value="Início" style="rounded=1;whiteSpace=wrap;html=1;fontSize=12;glass=0;strokeWidth=1;shadow=0;" vertex="1" parent="1">
          <mxGeometry x="425" y="-1060" width="60" height="40" as="geometry" />
        </mxCell>
        <mxCell id="0Tl1-S5wfmLRvgDY2HoP-5" value="" style="edgeStyle=orthogonalEdgeStyle;rounded=0;orthogonalLoop=1;jettySize=auto;html=1;" edge="1" parent="1" source="0Tl1-S5wfmLRvgDY2HoP-6" target="0Tl1-S5wfmLRvgDY2HoP-11">
          <mxGeometry relative="1" as="geometry" />
        </mxCell>
        <mxCell id="0Tl1-S5wfmLRvgDY2HoP-6" value="i = 0" style="rounded=0;whiteSpace=wrap;html=1;" vertex="1" parent="1">
          <mxGeometry x="395" y="-970" width="120" height="60" as="geometry" />
        </mxCell>
        <mxCell id="0Tl1-S5wfmLRvgDY2HoP-7" value="" style="edgeStyle=orthogonalEdgeStyle;rounded=0;orthogonalLoop=1;jettySize=auto;html=1;" edge="1" parent="1" source="0Tl1-S5wfmLRvgDY2HoP-11" target="0Tl1-S5wfmLRvgDY2HoP-13">
          <mxGeometry relative="1" as="geometry" />
        </mxCell>
        <mxCell id="0Tl1-S5wfmLRvgDY2HoP-8" value="Não" style="edgeLabel;html=1;align=center;verticalAlign=middle;resizable=0;points=[];" vertex="1" connectable="0" parent="0Tl1-S5wfmLRvgDY2HoP-7">
          <mxGeometry x="-0.64" y="-1" relative="1" as="geometry">
            <mxPoint as="offset" />
          </mxGeometry>
        </mxCell>
        <mxCell id="0Tl1-S5wfmLRvgDY2HoP-9" style="edgeStyle=orthogonalEdgeStyle;rounded=0;orthogonalLoop=1;jettySize=auto;html=1;entryX=0;entryY=0.5;entryDx=0;entryDy=0;" edge="1" parent="1" source="0Tl1-S5wfmLRvgDY2HoP-11">
          <mxGeometry relative="1" as="geometry">
            <mxPoint x="660" y="-840" as="targetPoint" />
          </mxGeometry>
        </mxCell>
        <mxCell id="0Tl1-S5wfmLRvgDY2HoP-10" value="Sim" style="edgeLabel;html=1;align=center;verticalAlign=middle;resizable=0;points=[];" vertex="1" connectable="0" parent="0Tl1-S5wfmLRvgDY2HoP-9">
          <mxGeometry x="-0.0312" relative="1" as="geometry">
            <mxPoint as="offset" />
          </mxGeometry>
        </mxCell>
        <mxCell id="0Tl1-S5wfmLRvgDY2HoP-11" value="i = 20 ?" style="shape=hexagon;perimeter=hexagonPerimeter2;whiteSpace=wrap;html=1;fixedSize=1;" vertex="1" parent="1">
          <mxGeometry x="395" y="-880" width="120" height="80" as="geometry" />
        </mxCell>
        <mxCell id="0Tl1-S5wfmLRvgDY2HoP-31" value="" style="edgeStyle=orthogonalEdgeStyle;rounded=0;orthogonalLoop=1;jettySize=auto;html=1;" edge="1" parent="1" source="0Tl1-S5wfmLRvgDY2HoP-13" target="0Tl1-S5wfmLRvgDY2HoP-25">
          <mxGeometry relative="1" as="geometry" />
        </mxCell>
        <mxCell id="0Tl1-S5wfmLRvgDY2HoP-13" value="i = i + 1" style="whiteSpace=wrap;html=1;" vertex="1" parent="1">
          <mxGeometry x="395" y="-750" width="120" height="60" as="geometry" />
        </mxCell>
        <mxCell id="0Tl1-S5wfmLRvgDY2HoP-28" value="" style="edgeStyle=orthogonalEdgeStyle;rounded=0;orthogonalLoop=1;jettySize=auto;html=1;" edge="1" parent="1" source="0Tl1-S5wfmLRvgDY2HoP-25" target="0Tl1-S5wfmLRvgDY2HoP-27">
          <mxGeometry relative="1" as="geometry" />
        </mxCell>
        <mxCell id="0Tl1-S5wfmLRvgDY2HoP-25" value="matriz[i, 1] = i&amp;nbsp;" style="whiteSpace=wrap;html=1;" vertex="1" parent="1">
          <mxGeometry x="395" y="-640" width="120" height="60" as="geometry" />
        </mxCell>
        <mxCell id="0Tl1-S5wfmLRvgDY2HoP-32" style="edgeStyle=orthogonalEdgeStyle;rounded=0;orthogonalLoop=1;jettySize=auto;html=1;entryX=0;entryY=0.5;entryDx=0;entryDy=0;" edge="1" parent="1" source="0Tl1-S5wfmLRvgDY2HoP-27" target="0Tl1-S5wfmLRvgDY2HoP-11">
          <mxGeometry relative="1" as="geometry">
            <Array as="points">
              <mxPoint x="230" y="-470" />
              <mxPoint x="230" y="-840" />
            </Array>
          </mxGeometry>
        </mxCell>
        <mxCell id="0Tl1-S5wfmLRvgDY2HoP-27" value="matriz[i, 2] = i * 2,54&amp;nbsp;" style="whiteSpace=wrap;html=1;" vertex="1" parent="1">
          <mxGeometry x="377.5" y="-500" width="155" height="60" as="geometry" />
        </mxCell>
        <mxCell id="0Tl1-S5wfmLRvgDY2HoP-33" value="Fim" style="rounded=1;whiteSpace=wrap;html=1;fontSize=12;glass=0;strokeWidth=1;shadow=0;" vertex="1" parent="1">
          <mxGeometry x="670" y="-750" width="60" height="40" as="geometry" />
        </mxCell>
        <mxCell id="0Tl1-S5wfmLRvgDY2HoP-35" value="" style="edgeStyle=orthogonalEdgeStyle;rounded=0;orthogonalLoop=1;jettySize=auto;html=1;" edge="1" parent="1" source="0Tl1-S5wfmLRvgDY2HoP-34" target="0Tl1-S5wfmLRvgDY2HoP-33">
          <mxGeometry relative="1" as="geometry" />
        </mxCell>
        <mxCell id="0Tl1-S5wfmLRvgDY2HoP-34" value="matriz" style="shape=display;whiteSpace=wrap;html=1;" vertex="1" parent="1">
          <mxGeometry x="660" y="-860" width="80" height="40" as="geometry" />
        </mxCell>
      </root>
    </mxGraphModel>
  </diagram>
</mxfile>
